<?xml version="1.0" standalone="no"?>
<!DOCTYPE svg PUBLIC "-//W3C//DTD SVG 20010904//EN"
 "http://www.w3.org/TR/2001/REC-SVG-20010904/DTD/svg10.dtd">
<svg version="1.0" xmlns="http://www.w3.org/2000/svg"
 width="886.000000pt" height="443.000000pt" viewBox="0 0 886.000000 443.000000"
 preserveAspectRatio="xMidYMid meet">

<g transform="translate(0.000000,443.000000) scale(0.100000,-0.100000)"
fill="#000000" stroke="none">
<path d="M6628 2568 l-3 -103 -225 -2 c-301 -3 -356 -18 -402 -111 -20 -42
-23 -62 -23 -187 0 -170 12 -221 65 -269 53 -47 103 -55 352 -57 276 -1 333
14 380 104 22 41 23 51 26 385 l3 342 -85 0 -85 0 -3 -102z m0 -393 c-4 -198
6 -189 -216 -193 -202 -4 -241 5 -259 58 -6 19 -11 76 -9 127 2 81 5 95 25
117 13 14 33 27 45 29 11 2 110 5 219 6 l198 1 -3 -145z"/>
<path d="M3445 2460 c-162 -5 -172 -6 -216 -32 -90 -53 -99 -88 -102 -366 l-2
-221 83 -3 c46 -2 86 -1 88 1 2 2 4 101 4 218 0 214 0 214 25 238 13 14 31 26
40 26 8 1 20 3 25 4 6 1 62 3 125 4 l115 1 0 64 c0 36 -3 66 -7 68 -5 2 -84 1
-178 -2z"/>
<path d="M5220 2458 c-97 -15 -153 -56 -175 -132 -17 -58 -21 -281 -5 -337 18
-66 51 -102 114 -127 55 -22 73 -24 271 -24 224 0 258 3 317 33 79 40 100 98
100 279 0 140 -11 195 -47 238 -50 60 -79 66 -312 72 -116 3 -235 2 -263 -2z
m382 -148 c58 -17 68 -39 68 -158 0 -57 -5 -112 -11 -124 -20 -37 -69 -48
-222 -48 -80 0 -158 5 -176 11 -47 17 -61 53 -61 159 0 108 15 145 63 159 44
13 294 13 339 1z"/>
<path d="M7334 2461 c-2 -2 -4 -30 -4 -60 l0 -57 71 4 c141 8 209 -20 209 -88
l0 -30 -232 0 c-266 -1 -329 -5 -377 -28 -63 -30 -76 -61 -76 -171 0 -109 11
-138 68 -168 28 -16 67 -18 317 -21 298 -3 349 2 402 39 53 38 62 69 66 239 4
173 -4 222 -45 271 -44 52 -82 63 -246 69 -82 3 -151 3 -153 1z m274 -401 c-3
-45 -10 -66 -26 -83 -22 -21 -29 -22 -243 -22 -207 0 -221 1 -235 19 -19 26
-18 96 2 124 15 22 18 22 261 22 l245 0 -4 -60z"/>
<path d="M3755 2150 l0 -310 88 0 87 0 0 310 0 310 -87 0 -88 0 0 -310z"/>
<path d="M4218 2446 c-59 -21 -86 -43 -110 -89 -21 -39 -23 -56 -26 -279 l-4
-238 86 0 85 0 3 210 3 210 28 27 27 28 180 0 c167 0 181 -1 200 -20 33 -34
40 -79 37 -271 l-2 -183 84 -3 c62 -2 85 0 89 10 2 7 3 111 0 230 -4 191 -7
222 -25 262 -25 56 -56 85 -112 105 -59 20 -486 21 -543 1z"/>
</g>
</svg>
